<svg width="25" height="25" viewBox="0 0 25 25" fill="none" xmlns="http://www.w3.org/2000/svg">
<path d="M2.498 17.004C3.026 17.928 3.576 18.742 4.148 19.446C4.742 20.15 5.402 20.7 6.128 21.096C6.854 21.492 7.679 21.69 8.603 21.69C9.835 21.69 10.825 21.349 11.573 20.667C12.321 19.985 12.695 19.116 12.695 18.06C12.695 17.026 12.453 16.201 11.969 15.585C11.485 14.969 10.847 14.474 10.055 14.1C9.285 13.704 8.46 13.352 7.58 13.044C7.008 12.846 6.37 12.593 5.666 12.285C4.962 11.955 4.291 11.548 3.653 11.064C3.015 10.558 2.487 9.942 2.069 9.216C1.673 8.49 1.475 7.599 1.475 6.543C1.475 5.399 1.761 4.376 2.333 3.474C2.905 2.572 3.697 1.868 4.709 1.362C5.721 0.833999 6.876 0.569999 8.174 0.569999C9.428 0.569999 10.517 0.811999 11.441 1.296C12.387 1.758 13.19 2.363 13.85 3.111C14.51 3.837 15.027 4.607 15.401 5.421L12.992 6.807C12.706 6.235 12.343 5.674 11.903 5.124C11.463 4.574 10.924 4.123 10.286 3.771C9.67 3.419 8.911 3.243 8.009 3.243C6.755 3.243 5.842 3.551 5.27 4.167C4.698 4.761 4.412 5.432 4.412 6.18C4.412 6.818 4.577 7.412 4.907 7.962C5.237 8.49 5.787 8.996 6.557 9.48C7.349 9.942 8.416 10.404 9.758 10.866C10.374 11.086 11.023 11.372 11.705 11.724C12.387 12.076 13.014 12.527 13.586 13.077C14.18 13.605 14.664 14.254 15.038 15.024C15.412 15.772 15.599 16.674 15.599 17.73C15.599 18.742 15.401 19.655 15.005 20.469C14.631 21.283 14.103 21.976 13.421 22.548C12.761 23.12 12.002 23.56 11.144 23.868C10.308 24.176 9.428 24.33 8.504 24.33C7.25 24.33 6.084 24.066 5.006 23.538C3.95 22.988 3.015 22.273 2.201 21.393C1.409 20.491 0.76 19.534 0.254 18.522L2.498 17.004ZM17.2441 8.82H24.8341V11.295H17.2441V8.82ZM19.7191 3.54H22.3591V24H19.7191V3.54Z" fill="white"/>
</svg>
